<svg xmlns="http://www.w3.org/2000/svg" width="760" height="420" viewBox="0 0 760 420" font-family="Segoe UI, Arial, sans-serif">
  <rect width="760" height="420" rx="12" fill="#ffffff"/>
  <rect x="1" y="1" width="758" height="418" rx="12" fill="none" stroke="#e6e8ef"/>

  <!-- fake site header -->
  <rect x="0" y="0" width="760" height="56" rx="12" fill="#f6f7fb"/>
  <rect x="24" y="20" width="18" height="18" rx="4" fill="#4f46e5"/>
  <text x="50" y="34" fill="#1e2433" font-size="15" font-weight="700">Acme Cloud</text>
  <text x="560" y="34" fill="#6b7280" font-size="12">Продукт   Тарифы   Контакты</text>

  <!-- hero -->
  <text x="40" y="150" fill="#1e2433" font-size="30" font-weight="700">Облако для вашего бизнеса</text>
  <text x="40" y="182" fill="#6b7280" font-size="14">Демо-сайт «компании» со встроенным AI-чатом поддержки →</text>
  <rect x="40" y="206" width="150" height="38" rx="9" fill="#4f46e5"/>
  <text x="74" y="230" fill="#fff" font-size="13">Начать бесплатно</text>

  <!-- widget chat panel -->
  <rect x="470" y="92" width="262" height="280" rx="14" fill="#fff" stroke="#e6e8ef"/>
  <rect x="470" y="92" width="262" height="44" rx="14" fill="#4f46e5"/>
  <text x="488" y="120" fill="#fff" font-size="13" font-weight="600">Acme Cloud — поддержка</text>
  <text x="710" y="120" fill="#fff" font-size="16">×</text>

  <rect x="486" y="150" width="180" height="46" rx="12" fill="#f1f2f7"/>
  <text x="498" y="170" fill="#1e2433" font-size="11">Pro стоит $12/мес [1]. Возврат</text>
  <text x="498" y="186" fill="#1e2433" font-size="11">— в течение 14 дней [2].</text>
  <text x="498" y="210" fill="#9aa0ad" font-size="9">Источники: [1] pricing.md  [2] support.md</text>

  <rect x="540" y="228" width="126" height="34" rx="12" fill="#4f46e5"/>
  <text x="556" y="249" fill="#fff" font-size="11">Сколько стоит Pro?</text>

  <rect x="486" y="320" width="230" height="36" rx="10" fill="#fff" stroke="#d6dae3"/>
  <text x="500" y="343" fill="#9aa0ad" font-size="12">Напишите сообщение…</text>

  <!-- bubble -->
  <circle cx="704" cy="384" r="22" fill="#4f46e5"/>
  <text x="694" y="390" font-size="18">💬</text>
</svg>
